<?xml version="1.0" standalone="no"?>
<!DOCTYPE svg PUBLIC "-//W3C//DTD SVG 20010904//EN"
 "http://www.w3.org/TR/2001/REC-SVG-20010904/DTD/svg10.dtd">
<svg version="1.0" xmlns="http://www.w3.org/2000/svg"
 width="25.000000pt" height="25.000000pt" viewBox="0 0 25.000000 25.000000"
 preserveAspectRatio="xMidYMid meet">

<g transform="translate(0.000000,25.000000) scale(0.100000,-0.100000)"
fill="#000000" stroke="none">
<path d="M0 130 l0 -80 49 0 c40 0 53 4 65 22 10 13 12 27 6 37 -4 9 -6 29 -3
45 8 38 -17 56 -74 56 l-43 0 0 -80z m85 30 c0 -9 -11 -16 -27 -18 -23 -3 -28
1 -28 18 0 17 5 21 28 18 16 -2 27 -9 27 -18z m3 -62 c3 -14 -3 -18 -27 -18
-25 0 -31 4 -31 21 0 16 5 20 27 17 17 -2 29 -10 31 -20z"/>
<path d="M160 190 c0 -5 16 -10 36 -10 21 0 33 4 29 10 -3 6 -19 10 -36 10
-16 0 -29 -4 -29 -10z"/>
<path d="M152 148 c-21 -21 -15 -75 10 -92 29 -21 41 -20 69 4 l24 20 -39 -2
c-24 -2 -41 2 -43 10 -3 8 8 12 36 12 33 0 41 4 41 18 0 27 -20 42 -55 42 -17
0 -36 -5 -43 -12z m63 -18 c4 -6 -5 -10 -20 -10 -15 0 -24 4 -20 10 3 6 12 10
20 10 8 0 17 -4 20 -10z"/>
</g>
</svg>
