<?xml version="1.0" standalone="no"?>
<!DOCTYPE svg PUBLIC "-//W3C//DTD SVG 20010904//EN"
 "http://www.w3.org/TR/2001/REC-SVG-20010904/DTD/svg10.dtd">
<svg version="1.0" xmlns="http://www.w3.org/2000/svg"
 width="512.000000pt" height="512.000000pt" viewBox="0 0 512.000000 512.000000"
 preserveAspectRatio="xMidYMid meet">

<g transform="translate(0.000000,512.000000) scale(0.100000,-0.100000)"
fill="#000000" stroke="none">
<path d="M2315 5109 c-473 -48 -916 -222 -1305 -512 -123 -93 -395 -365 -489
-490 -272 -365 -437 -767 -503 -1232 -17 -118 -17 -512 0 -630 66 -465 231
-867 503 -1232 94 -126 366 -398 492 -492 364 -271 769 -437 1232 -503 118
-17 512 -16 635 0 492 68 949 268 1319 577 47 39 140 128 206 196 200 207 323
384 455 654 122 247 200 505 242 800 17 118 17 512 0 630 -66 463 -234 873
-504 1232 -89 118 -282 320 -399 418 -364 304 -805 500 -1284 571 -122 18
-477 26 -600 13z m470 -1358 c479 -59 880 -162 1233 -317 280 -124 376 -193
406 -295 20 -66 20 -82 0 -148 -30 -103 -120 -170 -226 -171 -51 0 -71 7 -201
75 -165 86 -319 149 -480 199 -717 222 -1600 255 -2288 85 -191 -47 -236 -49
-307 -13 -108 54 -155 173 -118 297 37 124 115 165 442 231 339 69 545 86 999
81 296 -3 404 -8 540 -24z m-167 -875 c419 -57 757 -152 1092 -308 140 -65
260 -135 303 -176 36 -35 67 -107 67 -156 0 -74 -55 -155 -125 -187 -72 -33
-100 -26 -271 62 -192 100 -322 155 -502 212 -590 190 -1260 215 -1840 67
-175 -45 -200 -47 -258 -21 -151 69 -160 297 -14 371 95 49 451 121 735 149
137 14 679 5 813 -13z m-264 -816 c471 -27 893 -144 1238 -341 98 -56 142
-101 158 -160 28 -102 -43 -201 -144 -203 -33 -1 -79 18 -226 91 -422 211
-726 282 -1200 283 -273 0 -548 -29 -790 -83 -52 -11 -125 -21 -162 -21 -63
-1 -69 1 -102 33 -80 78 -73 198 16 264 64 48 567 126 898 140 36 2 83 4 105
5 22 1 116 -3 209 -8z"/>
</g>
</svg>
