<?xml version="1.0" standalone="no"?>
<!DOCTYPE svg PUBLIC "-//W3C//DTD SVG 20010904//EN"
 "http://www.w3.org/TR/2001/REC-SVG-20010904/DTD/svg10.dtd">
<svg version="1.0" xmlns="http://www.w3.org/2000/svg"
 width="24.000000pt" height="24.000000pt" viewBox="0 0 24.000000 24.000000"
 preserveAspectRatio="xMidYMid meet">

<g transform="translate(0.000000,24.000000) scale(0.100000,-0.100000)"
fill="#000000" stroke="none">
<path d="M49 191 c-41 -41 -41 -101 0 -142 65 -64 171 -20 171 71 0 91 -106
135 -171 71z m115 -31 c14 -5 26 -14 26 -20 0 -8 -8 -8 -22 -3 -13 4 -44 8
-70 8 -46 0 -56 4 -41 18 10 10 78 8 107 -3z m-6 -36 c12 -4 22 -10 22 -15 0
-5 -12 -6 -27 -2 -16 4 -43 8 -60 7 -18 0 -33 3 -33 8 0 9 64 11 98 2z m-2
-40 c18 -14 18 -15 -6 -7 -14 4 -40 7 -58 6 -18 -1 -30 3 -27 8 10 15 69 10
91 -7z"/>
</g>
</svg>
